<svg width="296" height="305" viewBox="0 0 296 305" fill="none" xmlns="http://www.w3.org/2000/svg">
<g clip-path="url(#clip0_106_579)">
<path d="M111.071 305L146.899 234.226L126.025 204.361L89.9244 275.681L111.071 305Z" fill="#282017"/>
<path d="M90.8612 276.955L72.9368 252.953L78.7634 240.485L96.825 264.673L90.8612 276.955Z" fill="#01A525"/>
<path d="M222.976 304.484L194.534 304.454L184.231 291.45L216.276 291.482L222.976 304.484Z" fill="#01A525"/>
<path d="M222.937 304.481L173.079 235.31L188.318 201.528L238.556 271.233L222.937 304.481Z" fill="#282017"/>
<path d="M72.5484 202.177L23.8415 135.115L0.287231 151.696L57.4155 233.548L72.5484 202.177Z" fill="#01A525"/>
<path d="M59.497 116.575L24.3363 167.718L0 152.049L41.6133 92.2042L59.497 116.575Z" fill="#01A525"/>
<path d="M259.254 228.613L296 151.94L269.924 139.196L243.622 195.776L259.254 228.613Z" fill="#01A525"/>
<path d="M249.361 71.7162L295.996 151.899L272.203 166.02L235.395 101.508L249.361 71.7162Z" fill="#01A525"/>
<path d="M201.773 48.9916C202.185 26.37 184.189 7.69734 161.577 7.28514C138.965 6.87294 120.301 24.8773 119.889 47.4988C119.477 70.1202 137.473 88.7926 160.085 89.2048C182.697 89.617 201.361 71.613 201.773 48.9916Z" fill="#282017"/>
<path d="M153.332 19.8964C164.598 20.357 193.949 31.1054 194.167 25.7554C194.386 20.4054 176.442 3.7991 162.762 0.905099C149.082 -1.9889 139.885 2.51839 139.667 7.86836C139.448 13.2183 142.065 19.4357 153.332 19.8964Z" fill="#858585"/>
<path d="M138.826 29.1542C140.296 21.4107 150.722 2.21497 147.048 1.51649C143.374 0.819088 130.067 11.5287 126.669 20.6929C123.271 29.8559 125.445 36.676 129.119 37.3745C132.793 38.0719 137.356 36.8978 138.826 29.1542Z" fill="#858585"/>
<path d="M201 40.6431C201 40.6431 191.5 -13.5 128.596 16.9519C121.896 24.9139 120.916 25.4994 113.494 25.8308C104.851 29.5934 105.146 40.6431 105.146 40.6431H201Z" fill="#858585"/>
<path d="M147.59 164.901L40.6838 51.9978L157.212 212.742L147.59 164.901Z" fill="#858585"/>
<path d="M181.642 162.405L265.246 262.051L175.957 105.51L181.642 162.405Z" fill="#858585"/>
<path d="M157.2 212.733L190.941 143.758L175.972 105.539L145.015 169.729L157.2 212.733Z" fill="#858585"/>
</g>
<defs>
<clipPath id="clip0_106_579">
<rect width="296" height="305" fill="white"/>
</clipPath>
</defs>
</svg>
