<svg version="1.1" xmlns="http://www.w3.org/2000/svg" fill="#01A525" viewBox="625.91 638.81 2751.49 2833.95">
    <g id="document" transform="scale(1.0 1.0) translate(2048.0 2048.0)">
        <path d="M-389.622,1424.76 L-56.5815,767.152 L-250.612,489.656 L-586.191,1152.34 L-389.622,1424.76 Z "
              fill-opacity="1.00"></path>
        <path d="M-577.483,1164.18 L-744.101,941.154 L-689.939,825.312 L-522.046,1050.06 L-577.483,1164.18 Z "
              fill-opacity="1.00"></path>
        <path d="M650.6,1419.97 L386.218,1419.69 L290.44,1298.86 L588.316,1299.16 L650.6,1419.97 Z "
              fill-opacity="1.00"></path>
        <path d="M650.233,1419.94 L186.783,777.229 L328.43,463.331 L795.425,1111.01 L650.233,1419.94 Z "
              fill-opacity="1.00"></path>
        <path d="M-747.711,469.362 L-1200.47,-153.749 L-1419.42,0.316562 L-888.38,760.851 L-747.711,469.362 Z "
              fill-opacity="1.00"></path>
        <path d="M-869.031,-326.018 L-1195.87,149.184 L-1422.09,3.5965 L-1035.27,-552.462 L-869.031,-326.018 Z "
              fill-opacity="1.00"></path>
        <path d="M987.82,715.004 L1329.4,2.58483 L1087.01,-115.827 L842.512,409.887 L987.82,715.004 Z "
              fill-opacity="1.00"></path>
        <path d="M895.86,-742.829 L1329.36,2.20019 L1108.19,133.405 L766.039,-466.016 L895.86,-742.829 Z "
              fill-opacity="1.00"></path>
        <path d="M453.509,-953.979 C457.339,-1164.17 290.052,-1337.67 79.862,-1341.5 C-130.328,-1345.33 -303.825,-1178.04 -307.655,-967.849 C-311.485,-757.659 -144.197,-584.162 65.9924,-580.332 C276.182,-576.502 449.679,-743.789 453.509,-953.979 Z "
              fill-opacity="1.00"></path>
        <path d="M3.2171,-1224.32 C107.945,-1220.04 380.774,-1120.17 382.806,-1169.88 C384.838,-1219.59 218.041,-1373.89 90.8767,-1400.78 C-36.2879,-1427.67 -121.776,-1385.79 -123.808,-1336.08 C-125.839,-1286.37 -101.51,-1228.6 3.2171,-1224.32 Z "
              fill-opacity="1.00"></path>
        <path d="M-131.62,-1138.3 C-117.957,-1210.25 -21.0424,-1388.61 -55.193,-1395.1 C-89.3436,-1401.58 -213.042,-1302.07 -244.629,-1216.92 C-276.216,-1131.78 -256.003,-1068.41 -221.853,-1061.92 C-187.702,-1055.44 -145.284,-1066.35 -131.62,-1138.3 Z "
              fill-opacity="1.00"></path>
        <path d="M-166.478,-1031.55 C-166.478,-1031.55 -186.264,-1214.59 -226.715,-1251.68 C-288.994,-1177.7 -298.104,-1172.26 -367.1,-1169.18 C-447.439,-1134.22 -444.696,-1031.55 -444.696,-1031.55 L-166.478,-1031.55 Z "
              fill-opacity="1.00"></path>
        <path d="M-50.1583,123.012 L-1043.91,-926.046 L39.2828,567.528 L-50.1583,123.012 Z "
              fill-opacity="1.00"></path>
        <path d="M266.381,99.8134 L1043.52,1025.69 L213.528,-428.83 L266.381,99.8134 Z "
              fill-opacity="1.00"></path>
        <path d="M39.1754,567.446 L352.815,-73.446 L213.67,-428.56 L-74.0904,167.873 L39.1754,567.446 Z "
              fill-opacity="1.00"></path>
    </g>
</svg>