<svg fill="currentColor" xmlns="http://www.w3.org/2000/svg" viewBox="1.34 1.05 36.06 35.79">
    <g id="facebook.svg">
        <path d="M19.3758 1.05176C24.3581 1.05176 28.8614 3.05267 32.1264 6.29286C35.3914 9.53284 37.4083 14.0009 37.4083 18.9446C37.4083 23.8883 35.3914 28.3565 32.1264 31.5963C28.8614 34.8362 24.3581 36.8374 19.3758 36.8374C14.3936 36.8374 9.89059 34.8362 6.62557 31.5963C3.36056 28.3565 1.34363 23.8883 1.34363 18.9446C1.34363 14.0009 3.36056 9.53263 6.62557 6.29286C9.89059 3.05267 14.3936 1.05176 19.3758 1.05176ZM31.1378 7.28352C28.1226 4.30132 23.9687 2.44835 19.3758 2.44835C14.7832 2.44835 10.6294 4.30132 7.62396 7.28352C4.6183 10.2655 2.75132 14.3872 2.75132 18.9446C2.75132 23.5021 4.6183 27.6234 7.62396 30.6154C10.6294 33.5976 14.7832 35.4404 19.3758 35.4404C23.9687 35.4404 28.1226 33.5976 31.1378 30.6154C34.1433 27.6234 36.0004 23.502 36.0004 18.9446C36.0004 14.3872 34.1433 10.2655 31.1378 7.28352Z"/>
        <path fill-rule="evenodd" clip-rule="evenodd"
              d="M20.7535 15.2882V13.822C20.7535 13.1185 21.2227 12.9503 21.5625 12.9503C21.8918 12.9503 23.6292 12.9503 23.6292 12.9503V9.81934H20.7836C17.6186 9.81934 16.9096 12.1376 16.9096 13.6436V15.2882H15.0721V17.4975V18.9441H16.9293C16.9293 23.0954 16.9293 28.0789 16.9293 28.0789H20.6139C20.6139 28.0789 20.6139 23.026 20.6139 18.9441H23.3396L23.4597 17.5075L23.6794 15.2882H20.7535Z"/>
    </g>
</svg>