<svg width="38" height="38" viewBox="0 0 38 38" fill="currentColor" xmlns="http://www.w3.org/2000/svg">
    <g id="instagram.svg" clip-path="url(#clip0_1_371)">
        <path id="Vector"
              d="M18.7563 0.191895C23.7924 0.191895 28.3542 2.28675 31.6444 5.67883C34.9447 9.07068 36.9836 13.7483 36.9836 18.9239C36.9836 24.0996 34.9447 28.7774 31.6444 32.1691C28.3542 35.5609 23.7924 37.6559 18.7563 37.6559C13.7303 37.6559 9.16869 35.5609 5.86828 32.1691C2.56765 28.7774 0.529053 24.0996 0.529053 18.9239C0.529053 13.7483 2.56765 9.07068 5.86806 5.67883C9.16869 2.28675 13.7303 0.191895 18.7563 0.191895ZM30.6453 6.71589C27.5971 3.59389 23.3987 1.65402 18.756 1.65402C14.1236 1.65402 9.91501 3.59389 6.87739 6.71589C3.83934 9.8379 1.95219 14.1528 1.95219 18.9239C1.95219 23.6952 3.83934 28.0099 6.87761 31.1423C9.91522 34.2645 14.1239 36.1936 18.7563 36.1936C23.399 36.1936 27.5974 34.2645 30.6455 31.1423C33.6834 28.0099 35.5605 23.6952 35.5605 18.9239C35.5605 14.1528 33.6834 9.8379 30.6453 6.71589Z"
        />
        <path id="Vector_2" fill-rule="evenodd" clip-rule="evenodd"
              d="M14.0937 18.9243C14.0937 16.2795 16.183 14.122 18.7566 14.122C21.3405 14.122 23.4295 16.2795 23.4295 18.9243C23.4295 21.5794 21.3405 23.7267 18.7566 23.7267C16.183 23.7267 14.0937 21.5794 14.0937 18.9243ZM23.581 9.5376H13.9425C11.5707 9.5376 9.62268 11.5288 9.62268 13.9769V23.8823C9.62268 26.3194 11.5705 28.3214 13.9425 28.3214H23.581C25.9627 28.3214 27.9004 26.3197 27.9004 23.8823V13.9769C27.9004 11.5288 25.9627 9.5376 23.581 9.5376ZM13.9425 10.6476H23.581C25.3674 10.6476 26.8206 12.1408 26.8206 13.977V23.8826C26.8206 25.7182 25.3674 27.2117 23.581 27.2117H13.9425C12.1558 27.2117 10.7026 25.7182 10.7026 23.8826V13.977C10.7028 12.1408 12.156 10.6476 13.9425 10.6476ZM24.5396 12.0476C24.0149 12.0476 23.591 12.4832 23.591 13.0223C23.591 13.5617 24.0149 13.9974 24.5396 13.9974C25.0643 13.9974 25.4884 13.562 25.4884 13.0223C25.4884 12.4832 25.0643 12.0476 24.5396 12.0476ZM24.6506 18.9243C24.6506 15.5843 22.0167 12.8671 18.7566 12.8671C15.5065 12.8671 12.8626 15.5843 12.8626 18.9243C12.8626 22.2746 15.5065 24.9819 18.7566 24.9819C22.0164 24.9819 24.6506 22.2747 24.6506 18.9243Z"
        />
    </g>
    <defs>
        <clipPath id="clip0_1_371">
            <rect width="37.44" height="38.7771" transform="translate(0.100098 -0.46875)"/>
        </clipPath>
    </defs>
</svg>