<svg width="37" height="36" viewBox="0 0 37 36" fill="currentColor" xmlns="http://www.w3.org/2000/svg">
    <g clip-path="url(#clip0_102_93)">
        <path d="M18.0358 0.00170898C23.0181 0.00170898 27.5214 2.00262 30.7864 5.24281C34.0514 8.48279 36.0683 12.9508 36.0683 17.8945C36.0683 22.8382 34.0514 27.3064 30.7864 30.5462C27.5214 33.7861 23.0181 35.7873 18.0358 35.7873C13.0536 35.7873 8.55062 33.7861 5.2856 30.5462C2.02059 27.3064 0.00366211 22.8382 0.00366211 17.8945C0.00366211 12.9508 2.02059 8.48258 5.2856 5.24281C8.55062 2.00262 13.0536 0.00170898 18.0358 0.00170898ZM29.7978 6.23347C26.7826 3.25127 22.6287 1.3983 18.0358 1.3983C13.4432 1.3983 9.28943 3.25127 6.28399 6.23347C3.27833 9.21545 1.41135 13.3371 1.41135 17.8945C1.41135 22.452 3.27833 26.5733 6.28399 29.5653C9.28943 32.5475 13.4432 34.3903 18.0358 34.3903C22.6287 34.3903 26.7826 32.5475 29.7978 29.5653C32.8033 26.5733 34.6604 22.4519 34.6604 17.8945C34.6604 13.3371 32.8033 9.21545 29.7978 6.23347Z"/>
        <path d="M14.4993 13.8197H11.4814C11.3474 13.8197 11.2389 13.9283 11.2389 14.0622V23.7574C11.2389 23.8914 11.3474 23.9999 11.4814 23.9999H14.4993C14.6332 23.9999 14.7417 23.8914 14.7417 23.7574V14.0622C14.7417 13.9283 14.6332 13.8197 14.4993 13.8197Z"/>
        <path d="M12.9914 9C11.8934 9 11 9.89238 11 10.9893C11 12.0866 11.8934 12.9794 12.9914 12.9794C14.0887 12.9794 14.9813 12.0866 14.9813 10.9893C14.9813 9.89238 14.0887 9 12.9914 9Z"/>
        <path d="M22.1756 13.5787C20.9635 13.5787 20.0675 14.0998 19.524 14.6919V14.0622C19.524 13.9283 19.4155 13.8197 19.2816 13.8197H16.3914C16.2575 13.8197 16.1489 13.9283 16.1489 14.0622V23.7574C16.1489 23.8914 16.2575 23.9999 16.3914 23.9999H19.4027C19.5367 23.9999 19.6452 23.8914 19.6452 23.7574V18.9605C19.6452 17.3441 20.0842 16.7143 21.211 16.7143C22.4382 16.7143 22.5358 17.7239 22.5358 19.0437V23.7575C22.5358 23.8914 22.6443 24 22.7782 24H25.7907C25.9246 24 26.0331 23.8914 26.0331 23.7575V18.4395C26.0331 16.0359 25.5748 13.5787 22.1756 13.5787Z"/>
    </g>
    <defs>
        <clipPath id="clip0_102_93">
            <rect width="36.06" height="35.79"/>
        </clipPath>
    </defs>
</svg>